####
#
# OBJ File Generated by Meshlab
#
####
# Object Cash-register.obj
#
# Vertices: 126
# Faces: 48
#
####
mtllib ./Cash-register.obj.mtl

vn 1.570796 -0.000001 0.000000
v 1.085766 -1.017334 0.200750
vn 1.570796 -0.000001 0.000000
v 1.085766 -1.017334 0.000750
vn 1.570796 -0.000001 0.000000
v 1.085767 0.831593 0.200750
vn 1.570796 -0.000001 0.000000
v 1.085767 0.831593 0.000750
vn -0.000001 -1.570796 0.000000
v -1.083767 -1.017333 0.200750
vn -0.000001 -1.570797 0.000000
v -1.083767 -1.017333 0.000750
vn -1.570796 0.000001 0.000000
v -1.083766 0.831595 0.200750
vn -1.570796 0.000001 0.000000
v -1.083766 0.831595 0.000750
vn 1.570797 -0.000001 0.000000
v 1.876001 1.090053 0.651837
vn 1.570796 -0.000001 -0.000000
v 1.876000 -0.784947 3.899432
vn 1.570796 -0.000001 0.000000
v 1.876001 0.786944 0.476837
vn 1.570797 -0.000001 -0.000000
v 1.875999 -1.088055 3.724432
vn -0.000000 -0.785399 1.360349
v -1.874000 -0.784944 3.899432
vn -0.000000 -0.785399 1.360349
v -1.874001 -1.088053 3.724432
vn -1.570796 0.000001 0.000000
v -1.873999 1.090056 0.651837
vn -1.570796 0.000001 0.000000
v -1.873999 0.786947 0.476837
vn 1.570796 -0.000000 0.000000
v 1.591553 1.034432 0.948175
vn 1.570802 -0.000002 -0.000000
v 1.591552 -0.556120 3.703094
vn 1.570796 -0.000000 0.000000
v 1.591553 0.947830 0.898175
vn 1.570794 -0.000002 -0.000000
v 1.591552 -0.642723 3.653094
vn -0.000001 -0.785395 1.360353
v -1.589553 -0.556118 3.703094
vn -0.000001 -0.785394 1.360351
v -1.589553 -0.642721 3.653094
vn -1.570796 0.000000 -0.000000
v -1.589552 1.034434 0.948175
vn -1.570796 0.000000 -0.000000
v -1.589552 0.947832 0.898175
vn 0.000001 1.360349 0.785398
v -0.583767 -0.447443 2.935823
vn 0.000001 1.360350 0.785398
v 0.585766 -0.447444 2.935823
vn 0.000002 2.931146 0.785398
v -0.583766 0.477021 1.334605
vn 0.000002 2.931146 0.785398
v 0.585766 0.477020 1.334605
vn -0.000001 -1.570796 0.000000
v -0.583767 -0.447443 0.200750
vn -0.000001 -1.570796 0.000000
v 0.585766 -0.447444 0.200750
vn -1.570796 0.000001 0.000000
v -0.583766 0.477021 0.200750
vn 0.000001 1.570796 0.000000
v 0.585766 0.477020 0.200750
vn -0.000000 -0.091927 0.000000
v 1.085766 -1.017334 0.200750
vn -0.000001 -1.570796 0.000000
v 1.085766 -1.017334 0.000750
vn -0.000001 -1.478870 0.000000
v 1.085766 -1.017334 0.200750
vn -0.107752 0.000000 0.000000
v -1.083767 -1.017333 0.200750
vn -1.570796 0.000001 0.000000
v -1.083767 -1.017333 0.000750
vn -1.463045 0.000001 0.000000
v -1.083767 -1.017333 0.200750
vn 0.000001 1.478870 0.000000
v 1.085767 0.831593 0.000750
vn 0.000000 0.091927 0.000000
v -1.083766 0.831595 0.200750
vn 0.000001 1.570796 0.000000
v 1.085767 0.831593 0.200750
vn 0.000001 1.570796 0.000000
v -1.083766 0.831595 0.000750
vn 0.000001 1.478870 0.000000
v -1.083766 0.831595 0.200750
vn 0.000000 0.091927 0.000000
v 1.085767 0.831593 0.000750
vn 0.000000 0.000000 -0.705784
v 1.085767 0.831593 0.000750
vn 0.000000 0.000000 -0.865013
v -1.083767 -1.017333 0.000750
vn 0.000000 0.000000 -1.570796
v -1.083766 0.831595 0.000750
vn 0.000000 0.000000 -1.570796
v 1.085766 -1.017334 0.000750
vn 0.000000 0.000000 -0.705784
v -1.083767 -1.017333 0.000750
vn 0.000000 0.000000 -0.865013
v 1.085767 0.831593 0.000750
vn 0.000000 0.000000 0.705784
v -1.083766 0.831595 0.200750
vn 0.000000 0.000000 0.865012
v 1.085766 -1.017334 0.200750
vn 0.000000 0.000000 1.570796
v 1.085767 0.831593 0.200750
vn 0.000000 0.000000 1.570796
v -1.083767 -1.017333 0.200750
vn 0.000000 0.000000 0.705784
v 1.085766 -1.017334 0.200750
vn 0.000000 0.000000 0.865013
v -1.083766 0.831595 0.200750
vn -0.000000 -0.738867 1.279754
v 1.875999 -1.088055 3.724432
vn -0.000000 -0.785399 1.360349
v 1.876000 -0.784947 3.899432
vn -0.000000 -0.046532 0.080595
v 1.875999 -1.088055 3.724432
vn -0.093064 0.000000 0.000000
v -1.874000 -0.784944 3.899432
vn -1.570797 0.000001 -0.000000
v -1.874001 -1.088053 3.724432
vn -1.477732 0.000001 -0.000000
v -1.874000 -0.784944 3.899432
vn 0.000000 0.738867 -1.279754
v 1.876001 0.786944 0.476837
vn 0.000000 0.046532 -0.080595
v -1.873999 1.090056 0.651837
vn 0.000000 0.785399 -1.360349
v 1.876001 1.090053 0.651837
vn 0.000000 0.785398 -1.360349
v -1.873999 0.786947 0.476837
vn 0.000000 0.738867 -1.279754
v -1.873999 1.090056 0.651837
vn 0.000000 0.046532 -0.080595
v 1.876001 0.786944 0.476837
vn -0.000000 -0.680175 -0.392699
v 1.876001 0.786944 0.476837
vn -0.000000 -0.680175 -0.392699
v -1.874001 -1.088053 3.724432
vn -0.000001 -1.360350 -0.785398
v -1.873999 0.786947 0.476837
vn -0.000001 -1.360350 -0.785398
v 1.875999 -1.088055 3.724432
vn -0.000000 -0.680175 -0.392699
v -1.874001 -1.088053 3.724432
vn -0.000000 -0.680175 -0.392699
v 1.876001 0.786944 0.476837
vn 0.000000 0.680175 0.392699
v 1.876001 1.090053 0.651837
vn 0.000000 0.680175 0.392699
v -1.874000 -0.784944 3.899432
vn 0.000001 1.360349 0.785398
v 1.876000 -0.784947 3.899432
vn 0.000001 1.360350 0.785398
v -1.873999 1.090056 0.651837
vn 0.000000 0.680175 0.392699
v -1.874000 -0.784944 3.899432
vn 0.000000 0.680175 0.392699
v 1.876001 1.090053 0.651837
vn -0.000000 -0.769682 1.333137
v 1.591552 -0.642723 3.653094
vn -0.000001 -0.785394 1.360351
v 1.591552 -0.556120 3.703094
vn -0.000000 -0.015713 0.027216
v 1.591552 -0.642723 3.653094
vn -0.031428 0.000000 -0.000000
v -1.589553 -0.556118 3.703094
vn -1.570794 0.000002 0.000000
v -1.589553 -0.642721 3.653094
vn -1.539374 0.000002 0.000000
v -1.589553 -0.556118 3.703094
vn 0.000000 0.769684 -1.333134
v 1.591553 0.947830 0.898175
vn 0.000000 0.015713 -0.027216
v -1.589552 1.034434 0.948175
vn 0.000001 0.785398 -1.360350
v 1.591553 1.034432 0.948175
vn 0.000001 0.785398 -1.360350
v -1.589552 0.947832 0.898175
vn 0.000000 0.769684 -1.333134
v -1.589552 1.034434 0.948175
vn 0.000000 0.015713 -0.027216
v 1.591553 0.947830 0.898175
vn -0.000000 -0.680175 -0.392699
v 1.591553 0.947830 0.898175
vn -0.000000 -0.680175 -0.392699
v -1.589553 -0.642721 3.653094
vn -0.000001 -1.360350 -0.785398
v -1.589552 0.947832 0.898175
vn -0.000001 -1.360350 -0.785398
v 1.591552 -0.642723 3.653094
vn -0.000000 -0.680175 -0.392699
v -1.589553 -0.642721 3.653094
vn -0.000000 -0.680175 -0.392699
v 1.591553 0.947830 0.898175
vn 0.000000 0.680175 0.392699
v -1.589552 1.034434 0.948175
vn 0.000000 0.680175 0.392699
v 1.591552 -0.556120 3.703094
vn 0.000001 1.360350 0.785398
v 1.591553 1.034432 0.948175
vn 0.000001 1.360350 0.785398
v -1.589553 -0.556118 3.703094
vn 0.000000 0.680175 0.392699
v 1.591552 -0.556120 3.703094
vn 0.000000 0.680175 0.392699
v -1.589552 1.034434 0.948175
vn -0.000001 -1.166721 0.000000
v 0.585766 -0.447444 2.935823
vn -0.000001 -1.570796 0.000000
v -0.583767 -0.447443 2.935823
vn -0.000000 -0.404076 0.000000
v 0.585766 -0.447444 2.935823
vn -1.933976 0.000001 0.000000
v -0.583766 0.477021 1.334605
vn -0.684018 0.000000 0.000000
v -0.583767 -0.447443 0.200750
vn -0.523599 0.000000 0.000000
v -0.583767 -0.447443 2.935823
vn -0.886778 0.000001 0.000000
v -0.583767 -0.447443 0.200750
vn -0.684018 0.000000 0.000000
v -0.583766 0.477021 1.334605
vn 0.000001 0.800886 0.000000
v -0.583766 0.477021 0.200750
vn 0.000000 0.769910 0.000000
v -0.583766 0.477021 0.200750
vn 0.684018 -0.000000 0.000000
v 0.585766 -0.447444 0.200750
vn 1.933976 -0.000001 0.000000
v 0.585766 0.477020 1.334605
vn 0.523599 -0.000000 0.000000
v 0.585766 -0.447444 2.935823
vn 1.570796 -0.000001 0.000000
v 0.585766 0.477020 0.200750
vn 0.684018 -0.000000 0.000000
v 0.585766 0.477020 1.334605
vn 0.886779 -0.000001 0.000000
v 0.585766 -0.447444 0.200750
vn 0.000000 0.000000 -0.668894
v -0.583767 -0.447443 0.200750
vn 0.000000 0.000000 -0.901902
v 0.585766 0.477020 0.200750
vn 0.000000 0.000000 -1.570796
v 0.585766 -0.447444 0.200750
vn 0.000000 0.000000 -1.570796
v -0.583766 0.477021 0.200750
vn 0.000000 0.000000 -0.668894
v 0.585766 0.477020 0.200750
vn 0.000000 0.000000 -0.901902
v -0.583767 -0.447443 0.200750
# 126 vertices, 0 vertices normals


usemtl material_0
vt 0.500000 0.500000
f 2/1/2 3/1/3 1/1/1
f 4/1/4 3/1/3 2/1/2
f 6/1/6 33/1/33 5/1/5
f 34/1/34 35/1/35 6/1/6
f 8/1/8 36/1/36 7/1/7
f 37/1/37 38/1/38 8/1/8
f 39/1/39 40/1/40 41/1/41
f 42/1/42 43/1/43 44/1/44
f 45/1/45 46/1/46 47/1/47
f 48/1/48 49/1/49 50/1/50
f 51/1/51 52/1/52 53/1/53
f 54/1/54 55/1/55 56/1/56
f 10/1/10 11/1/11 9/1/9
f 12/1/12 11/1/11 10/1/10
f 13/1/13 57/1/57 58/1/58
f 14/1/14 59/1/59 13/1/13
f 16/1/16 60/1/60 15/1/15
f 61/1/61 62/1/62 16/1/16
f 63/1/63 64/1/64 65/1/65
f 66/1/66 67/1/67 68/1/68
f 69/1/69 70/1/70 71/1/71
f 72/1/72 73/1/73 74/1/74
f 75/1/75 76/1/76 77/1/77
f 78/1/78 79/1/79 80/1/80
f 18/1/18 19/1/19 17/1/17
f 20/1/20 19/1/19 18/1/18
f 21/1/21 81/1/81 82/1/82
f 22/1/22 83/1/83 21/1/21
f 24/1/24 84/1/84 23/1/23
f 85/1/85 86/1/86 24/1/24
f 87/1/87 88/1/88 89/1/89
f 90/1/90 91/1/91 92/1/92
f 93/1/93 94/1/94 95/1/95
f 96/1/96 97/1/97 98/1/98
f 99/1/99 100/1/100 101/1/101
f 102/1/102 103/1/103 104/1/104
f 26/1/26 27/1/27 25/1/25
f 28/1/28 27/1/27 26/1/26
f 29/1/29 105/1/105 106/1/106
f 30/1/30 107/1/107 29/1/29
f 108/1/108 109/1/109 110/1/110
f 31/1/31 111/1/111 112/1/112
f 28/1/28 113/1/113 27/1/27
f 32/1/32 114/1/114 28/1/28
f 115/1/115 116/1/116 117/1/117
f 118/1/118 119/1/119 120/1/120
f 121/1/121 122/1/122 123/1/123
f 124/1/124 125/1/125 126/1/126
# 48 faces, 1 coords texture

# End of File
